#!OML:ASF E:\emotionWalksFemale\Project 1\Capture day 1\Session 1\Female1.ASF
:FULLY-SPECIFIED
:DEGREES
210
root 9.47897 18.8395 14.2191 166.882 -71.4266 -162.078
lowerback 9.78106 -1.57903 1.48978
upperback -4.74677 -1.75009 2.33947
thorax -10.5824 -0.873401 2.01497
lowerneck -11.6452 4.10763 1.3063
upperneck 11.4613 5.28994 0.0324694
head 5.39594 2.63026 0.221056
rclavicle 1.38217e-015 -2.17669e-014
rhumerus -75.2721 3.43206 -82.7942
rradius 29.4507
rwrist 35.6639
rhand 8.1421 -53.1516
rfingers 7.12502
rthumb 33.3621 -440.075
lclavicle 1.38217e-015 -2.17669e-014
lhumerus -40.2007 -10.7155 87.2238
lradius 27.2317
lwrist -44.8722
lhand 29.2789 -23.5466
lfingers 7.12502
lthumb 53.0575 -4.09069
rfemur -13.9617 21.0912 20.0945
rtibia 18.8671
rfoot 18.7021 -24.0568
rtoes 3.35003
lfemur -12.0699 -17.8553 -22.6463
ltibia 17.4663
lfoot -0.201608 36.2484
ltoes 48.0763
211
root 9.48853 18.6288 14.0915 164.324 -72.1161 -159.812
lowerback 9.73527 -1.40302 0.995503
upperback -4.62432 -1.58544 2.29043
thorax -10.4084 -0.760908 2.20242
lowerneck -11.5383 3.56597 0.933193
upperneck 11.3574 4.48786 1.0178
head 5.30897 2.29294 0.519085
rclavicle 4.86091e-014 2.44505e-014
rhumerus -75.432 3.39314 -85.3245
rradius 29.7519
rwrist 34.5115
rhand 9.30328 -52.5632
rfingers 7.12502
rthumb 34.4652 -439.242
lclavicle 4.86091e-014 2.44505e-014
lhumerus -39.8812 -10.4517 86.4632
lradius 27.2221
lwrist -44.9323
lhand 29.2878 -23.3818
lfingers 7.12502
lthumb 53.0655 -3.93103
rfemur -13.0205 19.3639 21.2198
rtibia 18.4879
rfoot 20.9569 -21.9531
rtoes -0.214831
lfemur -12.0079 -17.2944 -22.3349
ltibia 18.6523
lfoot 3.86346 35.4685
ltoes 43.7311
212
root 9.49772 18.4048 13.9655 161.171 -72.7734 -156.901
lowerback 9.6694 -1.32389 0.513713
upperback -4.52547 -1.53895 2.38353
thorax -10.2449 -0.702947 2.55927
lowerneck -11.4291 3.14907 0.594322
upperneck 11.3511 3.86703 1.85613
head 5.26572 2.0327 0.783334
rclavicle 1.99654e-014 -1.51076e-014
rhumerus -75.6053 3.85915 -87.871
rradius 30.282
rwrist 33.0489
rhand 9.3061 -52.846
rfingers 7.12502
rthumb 34.4679 -439.525
lclavicle 1.99654e-014 -1.51076e-014
lhumerus -39.5658 -9.70213 85.6568
lradius 27.1614
lwrist -44.9316
lhand 29.5965 -22.821
lfingers 7.12502
lthumb 53.3438 -3.54877
rfemur -12.2845 17.7714 22.3931
rtibia 18.3355
rfoot 21.6475 -19.3593
rtoes -2.43697
lfemur -12.04 -16.6479 -21.8832
ltibia 19.9912
lfoot 7.89181 33.9786
ltoes 38.2125
213
root 9.50982 18.1632 13.8415 157.844 -73.4748 -153.735
lowerback 9.64008 -1.26585 0.148471
upperback -4.51963 -1.51244 2.35868
thorax -10.213 -0.66597 2.73205
lowerneck -11.2486 2.73883 0.571316
upperneck 11.3267 3.21678 2.57252
head 5.22073 1.76079 0.956307
rclavicle 3.40419e-015 -1.98785e-014
rhumerus -75.479 3.40024 -88.3195
rradius 30.5845
rwrist 34.7026
rhand 11.6791 -51.9549
rfingers 7.12502
rthumb 36.7171 -438.092
lclavicle 3.40419e-015 -1.98785e-014
lhumerus -39.4604 -9.1848 84.8182
lradius 27.2231
lwrist -44.7981
lhand 29.9744 -22.3385
lfingers 7.12502
lthumb 53.684 -3.28898
rfemur -11.6187 15.6874 23.5399
rtibia 18.1421
rfoot 23.2436 -16.4935
rtoes -4.31514
lfemur -12.37 -16.0008 -21.4614
ltibia 21.7023
lfoot 12.7077 31.1604
ltoes 34.534
214
root 9.52567 17.8987 13.7249 154.544 -74.219 -150.619
lowerback 9.83784 -1.18543 0.0144873
upperback -4.56709 -1.43446 2.15097
thorax -10.3882 -0.622938 2.57774
lowerneck -10.9504 2.22888 0.575509
upperneck 11.1331 2.4338 3.28767
head 5.11115 1.42085 1.11202
rclavicle -7.09413e-014 -1.59028e-015
rhumerus -75.3193 2.64469 -88.8285
rradius 30.7872
rwrist 35.278
rhand 12.4859 -51.4753
rfingers 7.12502
rthumb 37.4802 -437.414
lclavicle -7.09413e-014 -1.59028e-015
lhumerus -39.3716 -8.68259 83.8166
lradius 27.1952
lwrist -45.2617
lhand 29.7145 -22.7921
lfingers 7.12502
lthumb 53.4501 -3.58898
rfemur -10.9644 13.6944 24.4792
rtibia 17.9625
rfoot 24.4251 -13.9424
rtoes -6.74558
lfemur -12.88 -15.4315 -21.2215
ltibia 23.7652
lfoot 17.1983 27.4754
ltoes 27.4498
215
root 9.53997 17.6198 13.5976 149.699 -74.6499 -146.122
lowerback 10.1187 -1.12879 0.00768257
upperback -4.46611 -1.35072 2.18502
thorax -10.446 -0.578846 2.60895
lowerneck -10.6694 1.75336 0.421989
upperneck 10.8277 1.73717 3.96066
head 4.97276 1.11029 1.28783
rclavicle -2.44505e-014 3.18055e-014
rhumerus -75.0382 2.83609 -90.283
rradius 31.0649
rwrist 34.0049
rhand 12.5307 -51.6291
rfingers 7.12502
rthumb 37.5225 -437.557
lclavicle -2.44505e-014 3.18055e-014
lhumerus -39.1222 -7.75807 82.8215
lradius 27.0137
lwrist -45.8187
lhand 29.3679 -23.1997
lfingers 7.12502
lthumb 53.1378 -3.79496
rfemur -10.4363 12.6959 25.7689
rtibia 18.4856
rfoot 23.814 -15.5968
rtoes 1.34845
lfemur -13.1592 -14.5717 -20.6279
ltibia 25.9454
lfoot 20.0241 23.1546
ltoes 14.4526
216
root 9.55191 17.3382 13.4691 144.622 -74.8653 -141.297
lowerback 10.1362 -1.03167 -0.0276226
upperback -4.29975 -1.21358 2.31385
thorax -10.2745 -0.507694 2.73742
lowerneck -10.51 1.32577 0.248792
upperneck 10.5152 1.10058 4.70459
head 4.85708 0.830952 1.49637
rclavicle 8.00108e-015 1.66979e-014
rhumerus -74.6209 3.20566 -91.4715
rradius 31.4998
rwrist 32.4388
rhand 12.4624 -51.7845
rfingers 7.12502
rthumb 37.458 -437.729
lclavicle 8.00108e-015 1.66979e-014
lhumerus -38.8115 -7.11714 82.0893
lradius 26.8837
lwrist -45.8384
lhand 29.1088 -22.8421
lfingers 7.12502
lthumb 52.9039 -3.28909
rfemur -10.1326 11.5504 27.1684
rtibia 19.3187
rfoot 22.8858 -17.2709
rtoes 10.4202
lfemur -13.5532 -13.1697 -20.0289
ltibia 28.572
lfoot 19.5794 18.6825
ltoes -7.86107
217
root 9.57055 17.0445 13.3673 143.445 -75.7026 -139.923
lowerback 9.78154 -0.874921 -0.787622
upperback -4.33024 -1.13022 2.0744
thorax -10.0915 -0.426931 2.88247
lowerneck -10.2264 0.866212 -0.0205602
upperneck 10.0288 0.450623 5.44804
head 4.67324 0.534176 1.71829
rclavicle 2.72832e-014 -9.54166e-015
rhumerus -74.1017 3.20591 -91.5998
rradius 31.892
rwrist 32.1851
rhand 12.6625 -51.7003
rfingers 7.12502
rthumb 37.647 -437.595
lclavicle 2.72832e-014 -9.54166e-015
lhumerus -38.6281 -6.94457 81.5872
lradius 26.9905
lwrist -45.537
lhand 28.7308 -22.7394
lfingers 7.12502
lthumb 52.5623 -2.97382
rfemur -10.7081 9.38719 27.1821
rtibia 20.5925
rfoot 22.8183 -15.6792
rtoes 10.3477
lfemur -14.445 -11.4964 -20.8046
ltibia 31.515
lfoot 15.6083 15.4414
ltoes -9.01124
218
root 9.59303 16.7332 13.249 138.872 -75.8447 -135.665
lowerback 10.0278 -0.730685 -0.937604
upperback -4.17701 -0.943196 2.21084
thorax -10.0747 -0.321716 3.08311
lowerneck -9.7469 0.39345 -0.263677
upperneck 9.32411 -0.170611 5.95647
head 4.39573 0.228946 1.86463
rclavicle -2.61402e-014 2.78299e-014
rhumerus -73.5156 3.15825 -91.0458
rradius 32.1345
rwrist 33.6624
rhand 13.1981 -51.178
rfingers 7.12502
rthumb 38.153 -436.935
lclavicle -2.61402e-014 2.78299e-014
lhumerus -38.6403 -7.25794 81.3492
lradius 27.3132
lwrist -44.446
lhand 28.4672 -23.2082
lfingers 7.12502
lthumb 52.3237 -3.29686
rfemur -10.7518 7.66413 28.3937
rtibia 22.5082
rfoot 20.676 -14.3574
rtoes 9.3269
lfemur -14.6694 -9.69586 -20.5798
ltibia 34.7541
lfoot 8.94183 14.1164
ltoes -10.0204
219
root 9.61752 16.4264 13.1333 135.366 -75.9667 -132.23
lowerback 10.0644 -0.603734 -1.3355
upperback -4.1076 -0.816303 2.348
thorax -10.0219 -0.23036 3.43253
lowerneck -9.19163 -0.000463547 -0.347692
upperneck 8.54786 -0.681164 6.31494
head 4.08486 -0.0311476 1.94882
rclavicle -1.7344e-014 -1.90833e-014
rhumerus -72.7586 2.81541 -89.4602
rradius 32.154
rwrist 37.6253
rhand 15.348 -49.1497
rfingers 7.12502
rthumb 40.1791 -434.321
lclavicle -1.7344e-014 -1.90833e-014
lhumerus -38.6063 -7.2279 80.9848
lradius 27.3997
lwrist -43.3298
lhand 27.9902 -23.6379
lfingers 7.12502
lthumb 51.8913 -3.46787
rfemur -11.1116 5.97938 29.3171
rtibia 24.9294
rfoot 15.1057 -10.7926
rtoes 0.710028
lfemur -15.2924 -8.32252 -20.3637
ltibia 38.0389
lfoot 1.71608 14.1225
ltoes -9.0325
220
root 9.64806 16.1193 13.0255 131.666 -76.2344 -128.738
lowerback 10.4318 -0.547437 -1.67604
upperback -4.03927 -0.783113 2.41357
thorax -10.1628 -0.186085 3.69879
lowerneck -8.64566 -0.353664 -0.641674
upperneck 7.50825 -1.10024 6.6889
head 4.0972 -0.275836 2.31042
rclavicle -3.58806e-014 8.74653e-015
rhumerus -71.8412 2.43832 -87.5224
rradius 31.9863
rwrist 42.4875
rhand 15.7681 -48.1009
rfingers 7.12502
rthumb 40.5742 -433.151
lclavicle -3.58806e-014 8.74653e-015
lhumerus -38.2516 -4.96682 79.637
lradius 26.9474
lwrist -44.6887
lhand 26.7046 -24.6073
lfingers 7.12502
lthumb 50.7214 -3.77177
rfemur -11.2628 3.95508 30.0928
rtibia 27.4952
rfoot 7.38988 -7.05049
rtoes -12.4438
lfemur -15.9911 -7.51402 -20.2297
ltibia 41.3678
lfoot -4.92666 14.8864
ltoes -8.31625
221
root 9.675 15.8498 12.9264 127.772 -76.3896 -125.113
lowerback 10.9455 -0.448446 -1.67785
upperback -3.95153 -0.655543 2.35515
thorax -10.3803 -0.121392 3.62316
lowerneck -8.05451 -0.701833 -0.880216
upperneck 6.70464 -1.55231 7.35963
head 3.73207 -0.507027 2.54012
rclavicle 1.04362e-014 1.35174e-014
rhumerus -70.9417 2.13104 -86.1146
rradius 31.9437
rwrist 46.7382
rhand 15.9425 -46.7223
rfingers 7.12502
rthumb 40.7381 -431.721
lclavicle 1.04362e-014 1.35174e-014
lhumerus -37.8174 -1.3963 77.6135
lradius 26.3479
lwrist -47.8373
lhand 24.23 -25.8821
lfingers 7.12502
lthumb 48.4533 -3.88362
rfemur -11.4135 2.13634 30.931
rtibia 30.1691
rfoot 1.93996 -6.05754
rtoes -17.4901
lfemur -16.868 -7.54264 -19.7199
ltibia 44.3575
lfoot -12.4152 15.0778
ltoes 5.69023
222
root 9.71074 15.5887 12.8326 122.797 -76.3308 -120.352
lowerback 11.6472 -0.437896 -1.32672
upperback -3.88141 -0.585425 2.38997
thorax -10.7263 -0.103047 3.46363
lowerneck -7.52116 -1.00177 -0.987861
upperneck 5.87559 -1.93693 7.92139
head 3.37206 -0.710435 2.71512
rclavicle -1.01629e-014 -9.54166e-015
rhumerus -69.9324 1.88861 -84.6325
rradius 32.0277
rwrist 51.4394
rhand 17.4809 -46.1713
rfingers 7.12502
rthumb 42.1815 -430.7
lclavicle -1.01629e-014 -9.54166e-015
lhumerus -37.546 1.32749 76.1611
lradius 25.8911
lwrist -49.9218
lhand 20.9234 -26.5071
lfingers 7.12502
lthumb 45.3943 -3.16462
rfemur -11.8976 0.545068 31.9489
rtibia 32.8086
rfoot -4.35774 -5.49687
rtoes -19.2055
lfemur -17.7642 -7.49733 -18.874
ltibia 47.0332
lfoot -18.5884 14.9303
ltoes 9.43366
223
root 9.75202 15.3329 12.7433 117.606 -76.2271 -115.088
lowerback 12.2488 -0.528307 -1.07096
upperback -3.87679 -0.643227 2.64164
thorax -11.0758 -0.132377 3.62179
lowerneck -7.27613 -1.33424 -1.37793
upperneck 5.28218 -2.33643 8.37095
head 3.1606 -0.921563 2.91243
rclavicle -7.55382e-015 -2.22639e-014
rhumerus -68.579 2.02031 -82.8295
rradius 32.1205
rwrist 56.0825
rhand 19.881 -46.2396
rfingers 7.12502
rthumb 44.4242 -429.962
lclavicle -7.55382e-015 -2.22639e-014
lhumerus -37.3598 3.85685 75.2216
lradius 25.4849
lwrist -51.3994
lhand 17.7202 -27.249
lfingers 7.12502
lthumb 42.4056 -2.79633
rfemur -12.7938 0.257961 32.935
rtibia 35.2089
rfoot -10.6157 -6.59821
rtoes -17.7823
lfemur -18.9086 -7.51332 -17.9431
ltibia 49.4089
lfoot -23.7329 15.2606
ltoes 4.2926
